<mxfile host="app.diagrams.net" modified="2023-08-03T03:53:11.579Z" agent="Mozilla/5.0 (Windows NT 10.0; Win64; x64) AppleWebKit/537.36 (KHTML, like Gecko) Chrome/115.0.0.0 Safari/537.36 Edg/115.0.1901.188" version="21.6.5" etag="LXR25r8ZS2mIgjOtL_t4" type="github">
  <diagram name="第 1 页" id="dQOv5Kbbg6y35du3SnL-">
    <mxGraphModel>
      <root>
        <mxCell id="0" />
        <mxCell id="1" parent="0" />
      </root>
    </mxGraphModel>
  </diagram>
</mxfile>
